<svg id="_ÎÓÈ_1" data-name="—ÎÓÈ_1" xmlns="http://www.w3.org/2000/svg" viewBox="0 0 300 300"><defs><style>.cls-1,.cls-2{fill:none;stroke-miterlimit:10;stroke-width:1.78px;}.cls-1{stroke:#fff;}.cls-2{stroke:#ffa608;}.cls-3{fill:#ffa608;}.cls-4{fill:#fff;}</style></defs><path class="cls-1" d="M77.38,163.76v-5.37a9,9,0,0,0-8.94-8.94h0a8.94,8.94,0,0,0-8.94,8.94v40.53H77.38"/><line class="cls-1" x1="68.44" y1="149.45" x2="95.26" y2="149.45"/><rect class="cls-2" x="106.88" y="124.42" width="31.36" height="30.3"/><rect class="cls-1" x="147.24" y="124.42" width="31.36" height="30.3"/><rect class="cls-1" x="106.88" y="163.72" width="31.36" height="30.3"/><rect class="cls-1" x="147.24" y="163.72" width="31.36" height="30.3"/><path class="cls-1" d="M86.32,208.76h95.35a8.94,8.94,0,0,0,8.94-8.94V113.4H95.26v86.42a8.94,8.94,0,0,1-17.88,0V158.1"/><rect class="cls-3" x="185.58" y="156.04" width="10.08" height="10.08" transform="translate(169.73 -87.61) rotate(45)"/><rect class="cls-3" x="199.83" y="156.04" width="10.08" height="10.08" transform="translate(173.9 -97.69) rotate(45)"/><rect class="cls-3" x="214.08" y="156.04" width="10.08" height="10.08" transform="translate(178.08 -107.77) rotate(45)"/><rect class="cls-3" x="228.34" y="156.04" width="10.08" height="10.08" transform="translate(182.25 -117.84) rotate(45)"/><line class="cls-2" x1="59.5" y1="115.53" x2="81.85" y2="115.53"/><line class="cls-2" x1="59.5" y1="133.31" x2="81.85" y2="133.31"/><line class="cls-2" x1="59.5" y1="124.42" x2="81.85" y2="124.42"/><rect class="cls-2" x="213.27" y="190.59" width="16.66" height="16.66" transform="translate(205.56 -98.43) rotate(45)"/><rect class="cls-3" x="65.67" y="91.37" width="10.01" height="10.01" transform="translate(88.84 -21.74) rotate(45)"/><path class="cls-1" d="M168.69,148.24v-2.48a3.3,3.3,0,0,0-3.3-3.3h-4.95a3.3,3.3,0,0,0-3.3,3.3v2.48"/><path class="cls-1" d="M165.39,137.51a2.48,2.48,0,0,1-4.95,0v-1.65a2.48,2.48,0,1,1,4.95,0Z"/><circle class="cls-2" cx="162.92" cy="139.57" r="10.73"/><circle class="cls-4" cx="116.56" cy="139.57" r="2"/><circle class="cls-4" cx="122.56" cy="139.57" r="2"/><circle class="cls-4" cx="128.56" cy="139.57" r="2"/><polygon class="cls-2" points="118.4 187 127.66 177.74 124.05 174.13 114.79 183.4 113.51 188.28 118.4 187"/><path class="cls-1" d="M130.41,175l-3.61-3.61,1.24-1.24a2.56,2.56,0,0,1,3.6,3.62Z"/><rect class="cls-2" x="125.28" y="172.01" width="3.9" height="5.1" transform="translate(-86.17 141.1) rotate(-45)"/><line class="cls-2" x1="114.79" y1="183.39" x2="118.4" y2="187"/><polygon class="cls-3" points="162.92 171.17 165.42 176.24 171.01 177.05 166.97 181 167.92 186.57 162.92 183.94 157.91 186.57 158.87 181 154.82 177.05 160.42 176.24 162.92 171.17"/></svg>