<svg id="_ÎÓÈ_1" data-name="—ÎÓÈ_1" xmlns="http://www.w3.org/2000/svg" xmlns:xlink="http://www.w3.org/1999/xlink" viewBox="0 0 300 300"><defs><style>.cls-1,.cls-2,.cls-3{fill:none;}.cls-2{stroke:#fff;}.cls-2,.cls-3{stroke-miterlimit:10;stroke-width:1.78px;}.cls-3{stroke:#ffa608;}.cls-4{clip-path:url(#clip-path);}.cls-5{fill:#ffa608;}</style><clipPath id="clip-path"><circle class="cls-1" cx="211.73" cy="168.55" r="13.38"/></clipPath></defs><path class="cls-2" d="M117.38,181.64V172a9.39,9.39,0,0,1,5.76-8.66l10-4.18a4.66,4.66,0,0,0,2.86-4.31v0c-3.34-3.46-3.51-9.91-3.48-16.13a10.45,10.45,0,0,1,20.89,0c0,6.22-.14,12.65-3.48,16.11v.07a4.65,4.65,0,0,0,2.85,4.29l10,4.18a9.41,9.41,0,0,1,5.76,8.66v9.66"/><rect class="cls-2" x="103.41" y="101.32" width="78.39" height="95.36"/><rect class="cls-2" x="195.17" y="101.32" width="33.11" height="40.28"/><rect class="cls-3" x="117.38" y="113.27" width="51.07" height="68.37"/><path class="cls-2" d="M194.83,141.83v-6.32a6.14,6.14,0,0,1,3.77-5.67l6.53-2.74a3.06,3.06,0,0,0,1.87-2.83h0c-2.19-2.27-2.3-6.5-2.28-10.57a6.84,6.84,0,0,1,13.68,0c0,4.07-.09,8.29-2.28,10.55v.05A3,3,0,0,0,218,127.1l6.52,2.74a6.14,6.14,0,0,1,3.77,5.67v6.32"/><circle class="cls-3" cx="211.73" cy="168.55" r="19.55"/><g class="cls-4"><path class="cls-3" d="M202.1,179.93v-3.64a3.55,3.55,0,0,1,2.17-3.26l3.76-1.58a1.75,1.75,0,0,0,1.07-1.62h0c-1.26-1.3-1.32-3.74-1.31-6.08a3.94,3.94,0,0,1,7.87,0c0,2.34,0,4.77-1.31,6.07v0a1.75,1.75,0,0,0,1.08,1.61l3.75,1.58a3.55,3.55,0,0,1,2.17,3.26v3.64"/></g><circle class="cls-2" cx="211.73" cy="168.55" r="13.38"/><line class="cls-3" x1="68.73" y1="117.5" x2="91.08" y2="117.5"/><line class="cls-3" x1="68.73" y1="135.28" x2="91.08" y2="135.28"/><line class="cls-3" x1="68.73" y1="126.39" x2="91.08" y2="126.39"/><rect class="cls-5" x="74.9" y="93.33" width="10.01" height="10.01" transform="translate(92.94 -27.7) rotate(45)"/><rect class="cls-3" x="73.46" y="148.5" width="12.88" height="12.88" transform="translate(132.96 -11.12) rotate(45)"/><rect class="cls-5" x="176.34" y="196.57" width="10.08" height="10.08" transform="translate(195.69 -69.21) rotate(45)"/><rect class="cls-5" x="190.6" y="196.57" width="10.08" height="10.08" transform="translate(199.86 -79.29) rotate(45)"/><rect class="cls-5" x="204.85" y="196.57" width="10.08" height="10.08" transform="translate(204.04 -89.37) rotate(45)"/><rect class="cls-5" x="219.11" y="196.57" width="10.08" height="10.08" transform="translate(208.21 -99.45) rotate(45)"/></svg>