<svg id="_ÎÓÈ_1" data-name="—ÎÓÈ_1" xmlns="http://www.w3.org/2000/svg" viewBox="0 0 300 300"><defs><style>.cls-1{fill:#ffa608;}.cls-2,.cls-3{fill:none;stroke-miterlimit:10;stroke-width:1.78px;}.cls-2{stroke:#ffa608;}.cls-3{stroke:#fff;}.cls-4{fill:#fff;}</style></defs><rect class="cls-1" x="65.89" y="93.33" width="10.01" height="10.01" transform="translate(90.3 -21.33) rotate(45)"/><rect class="cls-2" x="223.63" y="110.77" width="10.39" height="10.39" transform="translate(149.02 -127.84) rotate(45)"/><rect class="cls-1" x="167.72" y="196.57" width="10.08" height="10.08" transform="translate(193.16 -63.11) rotate(45)"/><rect class="cls-1" x="181.98" y="196.57" width="10.08" height="10.08" transform="translate(197.34 -73.19) rotate(45)"/><rect class="cls-1" x="196.23" y="196.57" width="10.08" height="10.08" transform="translate(201.51 -83.27) rotate(45)"/><rect class="cls-1" x="210.49" y="196.57" width="10.08" height="10.08" transform="translate(205.69 -93.35) rotate(45)"/><line class="cls-3" x1="96.77" y1="113.68" x2="154.44" y2="113.68"/><line class="cls-3" x1="154.44" y1="179.59" x2="96.77" y2="179.59"/><line class="cls-2" x1="119.43" y1="187.83" x2="131.79" y2="187.83"/><path class="cls-3" d="M154.44,122.76V107.5a6.18,6.18,0,0,0-6.18-6.18H103a6.18,6.18,0,0,0-6.18,6.18v82.39a6.18,6.18,0,0,0,6.18,6.18h45.31a6.18,6.18,0,0,0,6.18-6.18V168.42"/><circle class="cls-2" cx="154.44" cy="145.59" r="22.83"/><circle class="cls-2" cx="194.15" cy="112.17" r="13.8"/><circle class="cls-2" cx="206.4" cy="161.21" r="19.38"/><line class="cls-2" x1="85.6" y1="124.86" x2="107.95" y2="124.86"/><line class="cls-2" x1="85.6" y1="142.64" x2="107.95" y2="142.64"/><line class="cls-2" x1="85.6" y1="133.75" x2="107.95" y2="133.75"/><path class="cls-4" d="M197.82,107.71a.81.81,0,1,0,0,1.62.81.81,0,0,0,0-1.62Z"/><path class="cls-4" d="M194.2,108.75a3.42,3.42,0,1,0,3.42,3.42A3.42,3.42,0,0,0,194.2,108.75Zm0,5.6a2.19,2.19,0,1,1,2.19-2.18A2.19,2.19,0,0,1,194.2,114.35Z"/><path class="cls-4" d="M196.91,119.1h-5.53a4.17,4.17,0,0,1-4.17-4.17V109.4a4.17,4.17,0,0,1,4.17-4.17h5.53a4.17,4.17,0,0,1,4.17,4.17v5.53A4.17,4.17,0,0,1,196.91,119.1Zm-5.53-12.56a2.86,2.86,0,0,0-2.86,2.86v5.53a2.87,2.87,0,0,0,2.86,2.87h5.53a2.88,2.88,0,0,0,2.87-2.87V109.4a2.87,2.87,0,0,0-2.87-2.86Z"/><path class="cls-4" d="M159.23,146.88l.57-3.73h-3.57v-2.41a1.87,1.87,0,0,1,2.1-2H160v-3.17a19.84,19.84,0,0,0-2.88-.25c-2.94,0-4.87,1.78-4.87,5v2.84h-3.27v3.73h3.27v9h4v-9Z"/><path class="cls-4" d="M216.23,155a8.71,8.71,0,0,1-2,.57c.32-.06.8-.64,1-.88a3.58,3.58,0,0,0,.66-1.21s0-.08,0-.1a.11.11,0,0,0-.11,0,10.15,10.15,0,0,1-2.37.9.17.17,0,0,1-.17,0,1.39,1.39,0,0,0-.21-.21,4.25,4.25,0,0,0-1.15-.71,4.05,4.05,0,0,0-1.76-.28,4.31,4.31,0,0,0-1.68.47,4.36,4.36,0,0,0-1.35,1.11,4.07,4.07,0,0,0-.8,1.61,4.47,4.47,0,0,0-.05,1.71c0,.09,0,.11-.08.09a12.65,12.65,0,0,1-8.16-4.15c-.1-.11-.15-.11-.23,0a4.14,4.14,0,0,0,.71,4.89c.16.15.32.3.5.44a4.4,4.4,0,0,1-1.57-.44c-.1-.06-.15,0-.16.08a4,4,0,0,0,0,.47,4.17,4.17,0,0,0,2.58,3.33,2.4,2.4,0,0,0,.52.16,4.61,4.61,0,0,1-1.54.05c-.11,0-.16,0-.11.14a4.32,4.32,0,0,0,3.24,2.72c.15,0,.3,0,.44.06s0,0,0,0a5.17,5.17,0,0,1-2.22,1.17,7.72,7.72,0,0,1-3.37.43c-.18,0-.21,0-.26,0s0,.08,0,.13c.23.15.46.28.7.41a11.49,11.49,0,0,0,2.25.9,12,12,0,0,0,11.64-2.72,12.24,12.24,0,0,0,3.22-8.91c0-.13.15-.2.24-.27a7.68,7.68,0,0,0,1.58-1.64.49.49,0,0,0,.11-.32h0C216.31,155,216.31,155,216.23,155Z"/></svg>