<svg id="_ÎÓÈ_1" data-name="—ÎÓÈ_1" xmlns="http://www.w3.org/2000/svg" viewBox="0 0 300 300"><defs><style>.cls-1,.cls-3{fill:none;stroke-miterlimit:10;stroke-width:1.78px;}.cls-1{stroke:#ffa608;}.cls-2{fill:#ffa608;}.cls-3{stroke:#fff;}</style></defs><line class="cls-1" x1="54.99" y1="117.5" x2="77.34" y2="117.5"/><line class="cls-1" x1="54.99" y1="135.28" x2="77.34" y2="135.28"/><line class="cls-1" x1="54.99" y1="126.39" x2="77.34" y2="126.39"/><rect class="cls-2" x="61.16" y="93.33" width="10.01" height="10.01" transform="translate(88.91 -17.98) rotate(45)"/><path class="cls-3" d="M155.4,95.26a40,40,0,0,0-5.72.42,40,40,0,0,1,0,79.2,40,40,0,1,0,5.72-79.62Z"/><path class="cls-1" d="M106.39,149a40,40,0,1,1,15.43,19.57"/><circle class="cls-3" cx="142.73" cy="115.3" r="9.55"/><circle class="cls-3" cx="142.73" cy="155.86" r="9.55"/><circle class="cls-3" cx="163" cy="135.58" r="9.55"/><circle class="cls-3" cx="122.45" cy="135.58" r="9.55"/><circle class="cls-2" cx="142.73" cy="135.58" r="1.53"/><path class="cls-1" d="M142.73,175.29h50a9.79,9.79,0,0,0,9.79-9.79v-.1H190.57a9.8,9.8,0,0,1-9.79,9.89h-1.1"/><rect class="cls-1" x="217.38" y="155.69" width="12.88" height="12.88" transform="translate(180.2 -110.78) rotate(45)"/><line class="cls-1" x1="70.3" y1="208.74" x2="53.93" y2="208.74"/><line class="cls-1" x1="174.41" y1="208.74" x2="234.99" y2="208.74"/><line class="cls-1" x1="212.64" y1="199.85" x2="234.99" y2="199.85"/><rect class="cls-2" x="191.14" y="132.07" width="10.08" height="10.08" transform="translate(154.41 -98.56) rotate(45)"/><rect class="cls-2" x="205.4" y="132.07" width="10.08" height="10.08" transform="translate(158.59 -108.64) rotate(45)"/><rect class="cls-2" x="219.65" y="132.07" width="10.08" height="10.08" transform="translate(162.76 -118.72) rotate(45)"/><rect class="cls-2" x="233.91" y="132.07" width="10.08" height="10.08" transform="translate(166.94 -128.8) rotate(45)"/><polygon class="cls-3" points="92.79 159.15 92.79 181.54 110.7 170.35 92.79 159.15"/><circle class="cls-1" cx="99.5" cy="170.35" r="22.39"/></svg>