<svg id="_ÎÓÈ_1" data-name="—ÎÓÈ_1" xmlns="http://www.w3.org/2000/svg" viewBox="0 0 300 300"><defs><style>.cls-1,.cls-3{fill:none;stroke-miterlimit:10;stroke-width:1.78px;}.cls-1{stroke:#ffa608;}.cls-2{fill:#ffa608;}.cls-3{stroke:#fff;}.cls-4{fill:#fff;}</style></defs><line class="cls-1" x1="55.49" y1="115.75" x2="77.84" y2="115.75"/><line class="cls-1" x1="55.49" y1="133.53" x2="77.84" y2="133.53"/><line class="cls-1" x1="55.49" y1="124.64" x2="77.84" y2="124.64"/><rect class="cls-1" x="216.38" y="190.81" width="16.66" height="16.66" transform="translate(206.63 -100.57) rotate(45)"/><rect class="cls-2" x="61.66" y="91.59" width="10.01" height="10.01" transform="translate(87.83 -18.85) rotate(45)"/><path class="cls-3" d="M168.19,113.62H99.08a4.94,4.94,0,0,0-4.94,4.93V163a4.94,4.94,0,0,0,4.94,4.94h7.4l-7.4,14.81,27.15-14.81h42a4.94,4.94,0,0,0,4.94-4.94V118.55A4.94,4.94,0,0,0,168.19,113.62Z"/><circle class="cls-2" cx="118.82" cy="140.77" r="3.7"/><circle class="cls-2" cx="133.63" cy="140.77" r="3.7"/><circle class="cls-2" cx="148.44" cy="140.77" r="3.7"/><path class="cls-3" d="M115.55,173.74v16.4a4.94,4.94,0,0,0,4.94,4.93h42l27.15,14.81-7.4-14.81h7.4a4.94,4.94,0,0,0,4.94-4.93V145.71a4.94,4.94,0,0,0-4.94-4.94H173.13"/><rect class="cls-2" x="189.58" y="156.26" width="10.08" height="10.08" transform="translate(171.06 -90.37) rotate(45)"/><rect class="cls-2" x="203.83" y="156.26" width="10.08" height="10.08" transform="translate(175.23 -100.45) rotate(45)"/><rect class="cls-2" x="218.09" y="156.26" width="10.08" height="10.08" transform="translate(179.41 -110.53) rotate(45)"/><rect class="cls-2" x="232.34" y="156.26" width="10.08" height="10.08" transform="translate(183.58 -120.61) rotate(45)"/><circle class="cls-4" cx="215.38" cy="106.86" r="2.67"/><circle class="cls-4" cx="207.38" cy="106.86" r="2.67"/><circle class="cls-4" cx="199.37" cy="106.86" r="2.67"/><path class="cls-1" d="M207.37,89.08a17.76,17.76,0,0,1,17.11,13l9.79,4.74-9.78,4.85a17.78,17.78,0,1,1-17.12-22.57Z"/><line class="cls-1" x1="94.14" y1="209.88" x2="116.49" y2="209.88"/></svg>