<svg id="_ÎÓÈ_1" data-name="—ÎÓÈ_1" xmlns="http://www.w3.org/2000/svg" viewBox="0 0 300 300"><defs><style>.cls-1,.cls-3,.cls-4{fill:none;stroke-miterlimit:10;stroke-width:1.78px;}.cls-1,.cls-4{stroke:#ffa608;}.cls-2{fill:#ffa608;}.cls-3{stroke:#fff;}.cls-4{stroke-linecap:round;}</style></defs><line class="cls-1" x1="67.41" y1="116.05" x2="89.76" y2="116.05"/><line class="cls-1" x1="67.41" y1="133.83" x2="89.76" y2="133.83"/><line class="cls-1" x1="67.41" y1="124.94" x2="89.76" y2="124.94"/><rect class="cls-1" x="206.17" y="93.27" width="16.66" height="16.66" transform="translate(134.67 -121.92) rotate(45)"/><rect class="cls-2" x="73.58" y="91.89" width="10.01" height="10.01" transform="translate(91.53 -27.19) rotate(45)"/><rect class="cls-2" x="177.66" y="198.02" width="10.08" height="10.08" transform="translate(197.1 -69.72) rotate(45)"/><rect class="cls-2" x="191.92" y="198.02" width="10.08" height="10.08" transform="translate(201.27 -79.8) rotate(45)"/><rect class="cls-2" x="206.17" y="198.02" width="10.08" height="10.08" transform="translate(205.45 -89.88) rotate(45)"/><rect class="cls-2" x="220.43" y="198.02" width="10.08" height="10.08" transform="translate(209.62 -99.95) rotate(45)"/><circle class="cls-1" cx="137.97" cy="116.27" r="14.68"/><circle class="cls-3" cx="137.97" cy="116.27" r="6.53"/><circle class="cls-1" cx="167.32" cy="116.27" r="14.68"/><circle class="cls-3" cx="167.32" cy="116.27" r="6.53"/><path class="cls-1" d="M116.6,166.31V135.89a4.94,4.94,0,0,1,4.94-4.94h62.21a4.94,4.94,0,0,1,4.94,4.94v30.94a4.94,4.94,0,0,1-4.94,4.94H139.42"/><line class="cls-1" x1="116.6" y1="151.07" x2="136.74" y2="151.07"/><line class="cls-1" x1="168.55" y1="151.07" x2="188.69" y2="151.07"/><path class="cls-1" d="M122.54,131H105.39a1.46,1.46,0,0,0-1.17,2l2.93,8.71a1.27,1.27,0,0,0,1.17.94h8.28"/><path class="cls-1" d="M212.42,170.2l-17.17-9.85v-18l17.17-9.85a1.39,1.39,0,0,1,2.08,1.21V169A1.39,1.39,0,0,1,212.42,170.2Z"/><rect class="cls-1" x="188.69" y="142.37" width="6.56" height="17.98"/><rect class="cls-3" x="136.74" y="142.62" width="31.82" height="17.49"/><path class="cls-3" d="M82.79,158.76h7.44a2.71,2.71,0,0,1,2.71,2.71v4.43a0,0,0,0,1,0,0H80.08a0,0,0,0,1,0,0v-4.43A2.71,2.71,0,0,1,82.79,158.76Z"/><path class="cls-3" d="M128.42,161.81h4.08a1.53,1.53,0,0,1,1.53,1.53v2.57a0,0,0,0,1,0,0h-7.15a0,0,0,0,1,0,0v-2.57A1.53,1.53,0,0,1,128.42,161.81Z"/><circle class="cls-1" cx="115.22" cy="185.54" r="13.4"/><rect class="cls-1" x="74.06" y="165.91" width="65.41" height="43.36" rx="4.55" transform="translate(213.52 375.19) rotate(180)"/><circle class="cls-3" cx="115.22" cy="185.54" r="7.42"/><line class="cls-1" x1="139.47" y1="185.54" x2="128.62" y2="185.54"/><line class="cls-1" x1="101.82" y1="185.54" x2="74.06" y2="185.54"/><line class="cls-4" x1="84.31" y1="180.94" x2="74.06" y2="180.94"/><line class="cls-4" x1="84.31" y1="175.97" x2="74.06" y2="175.97"/><line class="cls-4" x1="84.31" y1="171.01" x2="74.06" y2="171.01"/></svg>