<svg id="_ÎÓÈ_1" data-name="—ÎÓÈ_1" xmlns="http://www.w3.org/2000/svg" viewBox="0 0 300 300"><defs><style>.cls-1,.cls-3{fill:none;stroke-miterlimit:10;stroke-width:1.78px;}.cls-1{stroke:#ffa608;}.cls-2{fill:#ffa608;}.cls-3{stroke:#fff;}</style></defs><line class="cls-1" x1="63.06" y1="115.53" x2="85.41" y2="115.53"/><line class="cls-1" x1="63.06" y1="133.31" x2="85.41" y2="133.31"/><line class="cls-1" x1="63.06" y1="124.42" x2="85.41" y2="124.42"/><rect class="cls-1" x="216.83" y="190.59" width="16.66" height="16.66" transform="translate(206.61 -100.95) rotate(45)"/><rect class="cls-2" x="69.23" y="91.37" width="10.01" height="10.01" transform="translate(89.89 -24.26) rotate(45)"/><rect class="cls-2" x="182.01" y="156.04" width="10.08" height="10.08" transform="translate(168.68 -85.09) rotate(45)"/><rect class="cls-2" x="196.27" y="156.04" width="10.08" height="10.08" transform="translate(172.86 -95.17) rotate(45)"/><rect class="cls-2" x="210.52" y="156.04" width="10.08" height="10.08" transform="translate(177.03 -105.25) rotate(45)"/><rect class="cls-2" x="224.77" y="156.04" width="10.08" height="10.08" transform="translate(181.21 -115.32) rotate(45)"/><line class="cls-1" x1="116" y1="209.66" x2="138.35" y2="209.66"/><path class="cls-3" d="M128.11,101.29a24.38,24.38,0,0,1,7.22-7.19,24.18,24.18,0,1,0,0,40.64,24.38,24.38,0,0,1-7.22-7.19"/><rect class="cls-3" x="63.06" y="154.22" width="70.2" height="39.83"/><polygon class="cls-2" points="173.32 114.06 178.86 111.19 184.4 108.31 184.4 114.06 184.4 119.81 178.86 116.94 173.32 114.06"/><polygon class="cls-3" points="184.4 120.66 210.6 120.66 210.6 107.67 184.4 107.67 173.32 114.17 184.4 120.66"/><path class="cls-3" d="M220.51,120.66v-13H225a6.5,6.5,0,0,1,0,13Z"/><rect class="cls-3" x="210.6" y="107.67" width="9.91" height="12.99"/><line class="cls-3" x1="184.4" y1="120.66" x2="184.4" y2="107.67"/><path class="cls-1" d="M136.28,100.28c-11,0-21,5.37-28.55,14.14,7.59,8.77,17.57,14.14,28.55,14.14s21-5.37,28.55-14.14C157.24,105.65,147.25,100.28,136.28,100.28Z"/><circle class="cls-1" cx="136.28" cy="114.42" r="10.39"/><circle class="cls-3" cx="136.28" cy="114.42" r="4.64"/><line class="cls-3" x1="74.23" y1="164.53" x2="106.13" y2="183.74"/><rect class="cls-1" x="74.23" y="164.53" width="33" height="19.2"/><path class="cls-1" d="M166.32,174.13a19.92,19.92,0,0,1-19.92,19.92V154.22A19.91,19.91,0,0,1,166.32,174.13Z"/></svg>