<svg id="_ÎÓÈ_1" data-name="—ÎÓÈ_1" xmlns="http://www.w3.org/2000/svg" viewBox="0 0 300 300"><defs><style>.cls-1,.cls-3{fill:none;stroke-miterlimit:10;stroke-width:1.78px;}.cls-1{stroke:#ffa608;}.cls-2{fill:#ffa608;}.cls-3{stroke:#fff;}</style></defs><line class="cls-1" x1="46.04" y1="116.6" x2="70.05" y2="116.6"/><line class="cls-1" x1="46.04" y1="134.38" x2="70.05" y2="134.38"/><line class="cls-1" x1="46.04" y1="125.49" x2="70.05" y2="125.49"/><rect class="cls-1" x="188.61" y="106.81" width="16.66" height="16.66" transform="translate(139.1 -105.54) rotate(45)"/><rect class="cls-2" x="53.87" y="92.44" width="10.01" height="10.01" transform="translate(86.15 -13.09) rotate(45)"/><rect class="cls-2" x="199.03" y="199.61" width="10.08" height="10.08" transform="translate(204.48 -84.36) rotate(45)"/><rect class="cls-2" x="213.28" y="199.61" width="10.08" height="10.08" transform="translate(208.65 -94.44) rotate(45)"/><rect class="cls-2" x="227.54" y="199.61" width="10.08" height="10.08" transform="translate(212.83 -104.52) rotate(45)"/><rect class="cls-2" x="241.79" y="199.61" width="10.08" height="10.08" transform="translate(217 -114.6) rotate(45)"/><path class="cls-3" d="M158,116.14V139H105.11l-.28-33.14a3.76,3.76,0,0,1,3.76-3.79h53"/><path class="cls-1" d="M87.35,195.79h10a0,0,0,0,1,0,0v.82a5,5,0,0,1-5,5h0a5,5,0,0,1-5-5v-.82A0,0,0,0,1,87.35,195.79Z"/><path class="cls-1" d="M164.49,195.79h10a0,0,0,0,1,0,0v.82a5,5,0,0,1-5,5h0a5,5,0,0,1-5-5v-.82a0,0,0,0,1,0,0Z"/><path class="cls-1" d="M180.33,187.4c-2-3-9.77-26.33-12.52-34.71a4.34,4.34,0,0,0-4.14-3H98.21a4.35,4.35,0,0,0-4.14,3c-2.75,8.38-10.49,31.68-12.52,34.71V191a4.76,4.76,0,0,0,4.76,4.75h89.13a4.76,4.76,0,0,0,4.76-4.59Z"/><circle class="cls-3" cx="101.78" cy="175.3" r="3.81"/><circle class="cls-3" cx="116.41" cy="175.3" r="3.81"/><circle class="cls-3" cx="131.04" cy="175.3" r="3.81"/><circle class="cls-3" cx="145.67" cy="175.3" r="3.81"/><circle class="cls-3" cx="160.3" cy="175.3" r="3.81"/><circle class="cls-3" cx="123.56" cy="161.04" r="3.81"/><circle class="cls-3" cx="108.61" cy="160.95" r="3.81"/><circle class="cls-3" cx="153.47" cy="160.95" r="3.81"/><circle class="cls-3" cx="138.51" cy="160.95" r="3.81"/><line class="cls-1" x1="98.41" y1="186.27" x2="163.67" y2="186.27"/><path class="cls-1" d="M91.48,138.95h78.46a3.27,3.27,0,0,1,3.27,3.27v4.2a3.27,3.27,0,0,1-3.27,3.27H91.48a2.8,2.8,0,0,1-2.8-2.8v-5.14A2.8,2.8,0,0,1,91.48,138.95Z"/><path class="cls-1" d="M88.67,144.32H81v18.34h0a3.86,3.86,0,0,0,3.86-3.86v-2.71A3.86,3.86,0,0,0,81,152.23h0"/><path class="cls-1" d="M168.73,139c1-2.62,2.49-4.32,4.23-4.32,2.88,0,5.22,4.64,5.22,10.38s-2.34,10.38-5.22,10.38c-2,0-3.79-2.32-4.65-5.7"/><path class="cls-1" d="M173,134.63h8.95c2.87,0,5.21,4.64,5.21,10.38s-2.34,10.38-5.21,10.38H173"/><line class="cls-1" x1="177.37" y1="139.47" x2="186.31" y2="139.47"/><path class="cls-1" d="M127.89,145H134a3.29,3.29,0,0,1,3.29,3.29v1.39a0,0,0,0,1,0,0H124.6a0,0,0,0,1,0,0V148.3A3.29,3.29,0,0,1,127.89,145Z"/><path class="cls-1" d="M102.79,145h0a2.86,2.86,0,0,1,2.86,2.86V149a.65.65,0,0,1-.65.65h-4.42a.65.65,0,0,1-.65-.65v-1.18a2.86,2.86,0,0,1,2.86-2.86Z"/><path class="cls-1" d="M159.09,145h0a2.86,2.86,0,0,1,2.86,2.86V149a.65.65,0,0,1-.65.65h-4.42a.65.65,0,0,1-.65-.65v-1.18a2.86,2.86,0,0,1,2.86-2.86Z"/><line class="cls-1" x1="112.91" y1="113.77" x2="148.98" y2="113.77"/><line class="cls-1" x1="112.91" y1="121.12" x2="148.98" y2="121.12"/><line class="cls-1" x1="112.91" y1="128.47" x2="148.98" y2="128.47"/><polyline class="cls-3" points="119.01 102.02 119.01 88.23 172.2 88.23 172.2 104.25"/><path class="cls-3" d="M172.23,104.25v4.93a3.56,3.56,0,0,1-3.56,3.56h0a3.56,3.56,0,0,1-3.56-3.56v-1.57"/><path class="cls-3" d="M158,116.14V105.58a3.57,3.57,0,0,1,3.56-3.56h0a3.56,3.56,0,0,1,3.56,3.56v2.27"/><line class="cls-3" x1="168.67" y1="112.74" x2="157.99" y2="112.74"/><line class="cls-1" x1="63.63" y1="211.77" x2="46.04" y2="211.77"/></svg>